<?xml version="1.0" encoding="utf-8"?>
<!-- Generator: Adobe Illustrator 16.0.0, SVG Export Plug-In . SVG Version: 6.00 Build 0)  -->
<!DOCTYPE svg PUBLIC "-//W3C//DTD SVG 1.1//EN" "http://www.w3.org/Graphics/SVG/1.1/DTD/svg11.dtd">
<svg version="1.1" xmlns="http://www.w3.org/2000/svg" xmlns:xlink="http://www.w3.org/1999/xlink" x="0px" y="0px" width="1000px"
	 height="1000px" viewBox="0 0 1000 1000" enable-background="new 0 0 1000 1000" xml:space="preserve">
<g id="Logo" display="none">
	<g display="inline">
		<g>
			<defs>
				<rect id="SVGID_1_" x="-348.511" y="-229.915" width="1165.566" height="1186.92"/>
			</defs>
			<clipPath id="SVGID_2_">
				<use xlink:href="#SVGID_1_"  overflow="visible"/>
			</clipPath>
			<path clip-path="url(#SVGID_2_)" fill="#BEC3E3" d="M244.987,307.282c6.13,2.039,12.513,1.939,18.243,0.111
				c-2.719-0.167-5.458-0.695-8.15-1.594c-15.946-5.3-24.252-21.779-18.568-36.804c1.573-4.124,4.029-7.71,7.112-10.639
				c-6.997,2.768-12.78,8.196-15.523,15.446C222.917,287.468,230.479,302.457,244.987,307.282"/>
			<path clip-path="url(#SVGID_2_)" fill="#A4ACD7" d="M223.687,312.134c6.451,5.324,14.35,8.308,22.333,8.984
				c-3.247-1.515-6.339-3.436-9.175-5.781c-16.793-13.848-18.352-36.844-3.494-51.356c4.085-3.992,8.996-6.936,14.298-8.792
				c-10.024-0.224-19.97,3.215-27.148,10.216C206.99,278.61,208.412,299.538,223.687,312.134"/>
			<path clip-path="url(#SVGID_2_)" fill="#6DA4D8" d="M195.002,307.376c5.129,9.262,13.256,16.529,22.695,21.188
				c-3.185-3.326-5.968-7.04-8.216-11.105c-13.354-24.092-3.225-51.311,22.617-60.801c7.111-2.616,14.667-3.609,22.164-3.172
				c-12.208-5.115-26.204-6.009-38.683-1.426C192.067,260.698,182.854,285.462,195.002,307.376"/>
			<path clip-path="url(#SVGID_2_)" fill="#597FC0" d="M162.289,287.978c1.445,13.146,7.611,25.445,16.751,35.393
				c-2.163-5.378-3.631-10.995-4.26-16.771c-3.769-34.203,22.927-60.608,59.621-58.979c10.094,0.451,19.885,2.983,28.874,7.12
				c-12.309-11.82-29.03-19.629-46.744-20.424C183.143,232.83,158.866,256.856,162.289,287.978"/>
			<path clip-path="url(#SVGID_2_)" fill="#3E60AC" d="M132.301,249.761c-5.105,15.827-3.995,32.979,2.021,48.868
				c0.153-7.234,1.308-14.419,3.544-21.372c13.307-41.178,59.91-58.595,104.092-38.904c12.141,5.415,22.843,13.072,31.705,22.196
				c-8.914-19.57-25.339-36.672-46.667-46.178C186.799,196.448,144.402,212.303,132.301,249.761"/>
			<path clip-path="url(#SVGID_2_)" fill="#3E5BA9" d="M115.53,191.231c-14.569,15.732-22.192,36.01-23.13,57.21
				c3.98-8.249,9.152-15.956,15.562-22.869c37.9-40.917,104.219-38.338,148.121,5.772c12.08,12.129,21.195,26.143,27.284,40.943
				c-0.674-26.84-11.872-54.503-33.069-75.797C210.348,156.36,150.013,154.005,115.53,191.231"/>
			<path clip-path="url(#SVGID_2_)" fill="#263C97" d="M125.604,115.75c-26.122,11.03-46.096,30.649-58.355,54.592
				c9.212-7.562,19.604-13.914,31.066-18.76c67.968-28.687,148.009,6.498,178.783,78.571c8.471,19.817,12.314,40.375,12.041,60.343
				c13.225-31.205,13.977-68.47-0.878-103.268C260.258,121.659,187.446,89.655,125.604,115.75"/>
			<path clip-path="url(#SVGID_2_)" fill="#252568" d="M169.163,37.778c-40.709,0-78.174,12.887-107.858,34.481
				c16.422-4.224,33.735-6.504,51.621-6.504c105.937,0,191.809,79.357,191.809,177.22c0,26.918-6.503,52.432-18.13,75.294
				c35.064-29.493,57.069-72.002,57.069-119.255C343.674,109.965,265.543,37.778,169.163,37.778"/>
		</g>
		<g>
			<g>
				<text transform="matrix(1 0 0 1 334.6973 317.5068)" font-family="'MyriadPro-Regular'" font-size="120.7205">Studima</text>
			</g>
			<g>
				<text transform="matrix(1 0 0 1 332.6973 315.5068)"><tspan x="0" y="0" fill="#252568" font-family="'MyriadPro-Regular'" font-size="120.7205">Studi</tspan><tspan x="262.322" y="0" fill="#BEC3E3" font-family="'MyriadPro-Regular'" font-size="120.7205">ma</tspan></text>
			</g>
		</g>
	</g>
</g>
<g id="third_place">
	<linearGradient id="SVGID_3_" gradientUnits="userSpaceOnUse" x1="182.8311" y1="518.1631" x2="914.9531" y2="518.1631">
		<stop  offset="0" style="stop-color:#161616"/>
		<stop  offset="1" style="stop-color:#353535"/>
	</linearGradient>
	<path fill="url(#SVGID_3_)" d="M914.953,575.501c0,6.628-5.374,12-12.001,12H194.877c-6.628,0-12.001-5.372-12.001-12
		l-0.004-77.499c-2.205-59.668,86.462-70.667,100.015-1.503h584.396c-3.596,45.501,47.671,5.373,47.671,12V575.501z"/>
	<g>
		<g>
			<g>
				<g>
					<defs>
						<rect id="SVGID_4_" x="35" y="309.369" width="414.413" height="422.005"/>
					</defs>
					<clipPath id="SVGID_5_">
						<use xlink:href="#SVGID_4_"  overflow="visible"/>
					</clipPath>
				</g>
				<g>
					<defs>
						<rect id="SVGID_6_" x="35" y="309.369" width="414.413" height="422.005"/>
					</defs>
					<clipPath id="SVGID_7_">
						<use xlink:href="#SVGID_6_"  overflow="visible"/>
					</clipPath>
					<path clip-path="url(#SVGID_7_)" fill="#FFFFFF" d="M246.016,500.367c2.179,0.726,4.449,0.69,6.486,0.04
						c-0.967-0.06-1.941-0.247-2.898-0.566c-5.67-1.885-8.623-7.744-6.602-13.086c0.56-1.466,1.433-2.741,2.529-3.782
						c-2.488,0.984-4.544,2.914-5.519,5.492C238.169,493.322,240.857,498.652,246.016,500.367"/>
					<path clip-path="url(#SVGID_7_)" fill="#FFFFFF" d="M238.442,502.093c2.294,1.893,5.102,2.953,7.94,3.194
						c-1.154-0.539-2.253-1.222-3.262-2.056c-5.971-4.924-6.525-13.1-1.243-18.26c1.453-1.419,3.199-2.466,5.083-3.126
						c-3.564-0.079-7.1,1.144-9.652,3.633C232.506,490.174,233.012,497.614,238.442,502.093"/>
					<path clip-path="url(#SVGID_7_)" fill="#FFFFFF" d="M228.244,500.401c1.824,3.293,4.713,5.877,8.069,7.532
						c-1.132-1.182-2.122-2.503-2.921-3.948c-4.748-8.565-1.146-18.243,8.042-21.617c2.528-0.931,5.215-1.283,7.88-1.128
						c-4.341-1.818-9.317-2.137-13.753-0.507C227.201,483.805,223.925,492.609,228.244,500.401"/>
					<path clip-path="url(#SVGID_7_)" fill="#FFFFFF" d="M216.613,493.504c0.514,4.674,2.706,9.047,5.956,12.584
						c-0.769-1.912-1.292-3.909-1.515-5.963c-1.34-12.161,8.151-21.55,21.198-20.971c3.589,0.161,7.07,1.062,10.266,2.532
						c-4.376-4.203-10.322-6.979-16.62-7.262C224.027,473.896,215.396,482.438,216.613,493.504"/>
					<path clip-path="url(#SVGID_7_)" fill="#FFFFFF" d="M205.951,479.916c-1.815,5.627-1.42,11.726,0.719,17.375
						c0.054-2.572,0.465-5.127,1.26-7.599c4.731-14.641,21.301-20.833,37.01-13.832c4.316,1.925,8.122,4.647,11.272,7.892
						c-3.169-6.958-9.009-13.039-16.592-16.419C225.328,460.961,210.253,466.599,205.951,479.916"/>
					<path clip-path="url(#SVGID_7_)" fill="#FFFFFF" d="M199.988,459.106c-5.18,5.593-7.89,12.803-8.224,20.341
						c1.415-2.933,3.254-5.673,5.533-8.131c13.475-14.548,37.055-13.631,52.664,2.052c4.295,4.313,7.536,9.295,9.701,14.558
						c-0.24-9.543-4.221-19.379-11.758-26.949C233.7,446.708,212.248,445.871,199.988,459.106"/>
					<path clip-path="url(#SVGID_7_)" fill="#FFFFFF" d="M203.57,432.27c-9.288,3.921-16.389,10.896-20.748,19.409
						c3.275-2.688,6.97-4.946,11.045-6.67c24.166-10.199,52.624,2.311,63.565,27.936c3.012,7.046,4.378,14.355,4.281,21.455
						c4.702-11.095,4.969-24.345-0.312-36.717C251.445,434.37,225.558,422.991,203.57,432.27"/>
					<path clip-path="url(#SVGID_7_)" fill="#FFFFFF" d="M219.057,404.547c-14.474,0-27.794,4.582-38.349,12.26
						c5.839-1.502,11.994-2.313,18.354-2.313c37.666,0,68.197,28.215,68.197,63.01c0,9.57-2.312,18.642-6.446,26.771
						c12.467-10.486,20.291-25.601,20.291-42.401C281.104,430.212,253.324,404.547,219.057,404.547"/>
				</g>
				<g>
					<defs>
						<rect id="SVGID_8_" x="35" y="309.369" width="414.413" height="422.005"/>
					</defs>
					<clipPath id="SVGID_9_">
						<use xlink:href="#SVGID_8_"  overflow="visible"/>
					</clipPath>
				</g>
			</g>
			<g>
				<g>
					<defs>
						<rect id="SVGID_10_" x="33" y="307.369" width="414.413" height="422.005"/>
					</defs>
					<clipPath id="SVGID_11_">
						<use xlink:href="#SVGID_10_"  overflow="visible"/>
					</clipPath>
				</g>
				<g>
					<defs>
						<rect id="SVGID_12_" x="33" y="307.369" width="414.413" height="422.005"/>
					</defs>
					<clipPath id="SVGID_13_">
						<use xlink:href="#SVGID_12_"  overflow="visible"/>
					</clipPath>
					<path clip-path="url(#SVGID_13_)" fill="#BEC3E3" d="M244.016,498.367c2.179,0.726,4.449,0.69,6.486,0.04
						c-0.967-0.06-1.941-0.247-2.898-0.566c-5.67-1.885-8.623-7.744-6.602-13.086c0.56-1.466,1.433-2.741,2.529-3.782
						c-2.488,0.984-4.544,2.914-5.519,5.492C236.169,491.322,238.857,496.652,244.016,498.367"/>
					<path clip-path="url(#SVGID_13_)" fill="#A4ACD7" d="M236.442,500.093c2.294,1.893,5.102,2.953,7.94,3.194
						c-1.154-0.539-2.253-1.222-3.262-2.056c-5.971-4.924-6.525-13.1-1.243-18.26c1.453-1.419,3.199-2.466,5.083-3.126
						c-3.564-0.079-7.1,1.144-9.652,3.633C230.506,488.174,231.012,495.614,236.442,500.093"/>
					<path clip-path="url(#SVGID_13_)" fill="#6DA4D8" d="M226.244,498.401c1.824,3.293,4.713,5.877,8.069,7.532
						c-1.132-1.182-2.122-2.503-2.921-3.948c-4.748-8.565-1.146-18.243,8.042-21.617c2.528-0.931,5.215-1.283,7.88-1.128
						c-4.341-1.818-9.317-2.137-13.753-0.507C225.201,481.805,221.925,490.609,226.244,498.401"/>
					<path clip-path="url(#SVGID_13_)" fill="#597FC0" d="M214.613,491.504c0.514,4.674,2.706,9.047,5.956,12.584
						c-0.769-1.912-1.292-3.909-1.515-5.963c-1.34-12.161,8.151-21.55,21.198-20.971c3.589,0.161,7.07,1.062,10.266,2.532
						c-4.376-4.203-10.322-6.979-16.62-7.262C222.027,471.896,213.396,480.438,214.613,491.504"/>
					<path clip-path="url(#SVGID_13_)" fill="#3E60AC" d="M203.951,477.916c-1.815,5.627-1.42,11.726,0.719,17.375
						c0.054-2.572,0.465-5.127,1.26-7.599c4.731-14.641,21.301-20.833,37.01-13.832c4.316,1.925,8.122,4.647,11.272,7.892
						c-3.169-6.958-9.009-13.039-16.592-16.419C223.328,458.961,208.253,464.599,203.951,477.916"/>
					<path clip-path="url(#SVGID_13_)" fill="#3E5BA9" d="M197.988,457.106c-5.18,5.593-7.89,12.803-8.224,20.341
						c1.415-2.933,3.254-5.673,5.533-8.131c13.475-14.548,37.055-13.631,52.664,2.052c4.295,4.313,7.536,9.295,9.701,14.558
						c-0.24-9.543-4.221-19.379-11.758-26.949C231.7,444.708,210.248,443.871,197.988,457.106"/>
					<path clip-path="url(#SVGID_13_)" fill="#263C97" d="M201.57,430.27c-9.288,3.921-16.389,10.896-20.748,19.409
						c3.275-2.688,6.97-4.946,11.045-6.67c24.166-10.199,52.624,2.311,63.565,27.936c3.012,7.046,4.378,14.355,4.281,21.455
						c4.702-11.095,4.969-24.345-0.312-36.717C249.445,432.37,223.558,420.991,201.57,430.27"/>
					<path clip-path="url(#SVGID_13_)" fill="#252568" d="M217.057,402.547c-14.474,0-27.794,4.582-38.349,12.26
						c5.839-1.502,11.994-2.313,18.354-2.313c37.666,0,68.197,28.215,68.197,63.01c0,9.57-2.312,18.642-6.446,26.771
						c12.467-10.486,20.291-25.601,20.291-42.401C279.104,428.212,251.324,402.547,217.057,402.547"/>
				</g>
				<g>
					<defs>
						<rect id="SVGID_14_" x="33" y="307.369" width="414.413" height="422.005"/>
					</defs>
					<clipPath id="SVGID_15_">
						<use xlink:href="#SVGID_14_"  overflow="visible"/>
					</clipPath>
				</g>
			</g>
		</g>
		<g>
			<g>
				<text transform="matrix(1 0 0 1 286.2031 491)" font-family="'MyriadPro-Regular'" font-size="42.9217">Studima</text>
			</g>
			<g>
				<text transform="matrix(1 0 0 1 285.2031 489)"><tspan x="0" y="0" fill="#252568" font-family="'MyriadPro-Regular'" font-size="42.9217">Studi</tspan><tspan x="93.268" y="0" fill="#BEC3E3" font-family="'MyriadPro-Regular'" font-size="42.9217">ma</tspan></text>
			</g>
		</g>
	</g>
</g>
</svg>
